<?xml version="1.0" standalone="no"?>
<!DOCTYPE svg PUBLIC "-//W3C//DTD SVG 20010904//EN"
 "http://www.w3.org/TR/2001/REC-SVG-20010904/DTD/svg10.dtd">
<svg version="1.0" xmlns="http://www.w3.org/2000/svg"
 width="225.000000pt" height="225.000000pt" viewBox="0 0 225.000000 225.000000"
 preserveAspectRatio="xMidYMid meet">

<g transform="translate(0.000000,225.000000) scale(0.100000,-0.100000)"
fill="#000000" stroke="none">
<path d="M1296 1864 c-145 -92 -170 -105 -189 -96 -12 5 -62 42 -110 81 -48
39 -94 71 -102 71 -23 0 -46 -31 -43 -59 3 -22 19 -34 118 -83 73 -36 128 -57
151 -57 25 -1 91 23 205 75 93 41 174 80 181 86 20 16 15 55 -9 72 -12 9 -25
16 -29 16 -3 0 -81 -48 -173 -106z"/>
<path d="M920 1673 c-294 -44 -402 -87 -456 -179 -81 -139 -89 -740 -13 -1007
13 -48 73 -115 119 -135 126 -53 587 -79 845 -48 228 28 270 40 324 95 28 28
51 62 59 87 26 88 44 246 49 431 l6 192 -84 -55 c-110 -72 -215 -124 -251
-124 -47 0 -95 26 -115 62 -15 28 -18 64 -21 234 l-4 200 27 32 c31 37 80 53
127 43 18 -4 89 -37 158 -72 68 -35 128 -66 133 -67 8 -4 3 29 -15 87 -13 43
-71 107 -117 131 -124 63 -344 100 -574 99 -95 -1 -183 -3 -197 -6z m319 -306
c53 -27 63 -56 79 -221 17 -176 12 -204 -42 -237 -26 -16 -51 -19 -159 -19
l-129 0 -34 34 c-39 39 -41 54 -24 245 17 186 39 210 190 211 56 0 105 -5 119
-13z m-436 -621 c94 -70 207 -100 352 -93 116 6 194 29 272 83 54 37 78 39 90
7 12 -32 -96 -104 -207 -137 -84 -26 -231 -31 -319 -12 -125 26 -261 102 -261
145 0 38 28 41 73 7z"/>
<path d="M1534 1296 c-69 -69 -26 -176 71 -176 62 0 105 45 105 110 0 47 -56
100 -105 100 -29 0 -45 -8 -71 -34z"/>
</g>
</svg>
