<svg xmlns="http://www.w3.org/2000/svg"><symbol id="search" fill='none' viewBox="0 0 24 24"><circle cx="10" cy="10" r="7.1" stroke="currentColor" stroke-width="1.8"/><path stroke="currentColor" stroke-width="1.8" d="M21 21l-6-6"/></symbol><symbol id="favorite" fill='none' viewBox="0 0 24 24"><path fill="currentColor" fill-rule="evenodd" d="M11.969 4.56c-2.117-1.847-5.26-2.23-7.698-.186-2.633 2.207-3.02 5.934-.933 8.569.793 1.002 2.344 2.509 3.836 3.891 1.51 1.399 3.016 2.72 3.759 3.365l.014.012c.07.061.155.136.237.196.097.072.234.159.414.212.241.07.5.07.741 0 .181-.053.318-.14.415-.212.081-.06.167-.135.237-.196l.014-.012c.743-.645 2.249-1.966 3.758-3.365 1.493-1.382 3.044-2.89 3.837-3.891 2.079-2.625 1.75-6.38-.942-8.577-2.466-2.01-5.576-1.654-7.69.195z" clip-rule="evenodd"/></symbol><symbol id="favorite-outlined" fill='none' viewBox="0 0 24 24"><path stroke="currentColor" stroke-linecap="round" stroke-width="1.8" d="M11.402 5.404l.592.517.592-.518c1.824-1.595 4.443-1.875 6.528-.174 2.304 1.879 2.585 5.074.805 7.32-.743.939-2.242 2.4-3.742 3.79a166.741 166.741 0 0 1-3.737 3.346l-.014.012a3.277 3.277 0 0 1-.182.151.42.42 0 0 1-.133.072.423.423 0 0 1-.235 0 .42.42 0 0 1-.132-.072 3.277 3.277 0 0 1-.182-.15l-.014-.013c-.74-.643-2.238-1.957-3.737-3.346-1.5-1.39-3-2.851-3.743-3.79-1.778-2.245-1.46-5.42.806-7.32 2.048-1.718 4.693-1.427 6.528.175z"/></symbol><symbol id="share" fill='none' viewBox="0 0 24 24"><circle cx="6" cy="12" r="3.1" stroke="currentColor" stroke-linecap="round" stroke-width="1.8"/><path stroke="currentColor" stroke-width="1.8" d="M14.5 7.5l-6 3.5m0 2l6 3.5"/><circle cx="17" cy="6" r="3.1" stroke="currentColor" stroke-linecap="round" stroke-width="1.8"/><circle cx="17" cy="18" r="3.1" stroke="currentColor" stroke-linecap="round" stroke-width="1.8"/></symbol><symbol id="open-in-new" fill='none' viewBox="0 0 24 24"><path fill-rule="evenodd" clip-rule="evenodd" d="M11 3.2002H5.20001C4.09544 3.2002 3.20001 4.09563 3.20001 5.2002V18.7002C3.20001 19.8048 4.09544 20.7002 5.20001 20.7002H18.7C19.8046 20.7002 20.7 19.8048 20.7 18.7002V13.0002H18.9V18.7002C18.9 18.8107 18.8105 18.9002 18.7 18.9002H5.20001C5.08956 18.9002 5.00001 18.8107 5.00001 18.7002V5.2002C5.00001 5.08974 5.08956 5.0002 5.20001 5.0002H11V3.2002Z" fill="currentColor"/><path d="M10.9575 13.0428L20.1575 3.84277" stroke="currentColor" stroke-width="1.8"/><path d="M20.0428 10.2825V3.95752H13.7178" stroke="currentColor" stroke-width="1.8" stroke-linejoin="round"/></symbol><symbol id="copy-link" fill='none' viewBox="0 0 24 24"><path d="M23.4677 7.18807L18.6278 3.55814C18.4463 3.42021 18.1994 3.39843 17.9949 3.50128C17.7892 3.60412 17.6598 3.81345 17.6598 4.04213V5.8571H15.8448C12.175 5.8571 9.18994 8.84211 9.18994 12.512C9.18994 12.7927 9.38354 13.0371 9.65578 13.1012C9.70176 13.1121 9.74895 13.117 9.79493 13.117C10.02 13.117 10.2317 12.9911 10.3358 12.783L10.4786 12.4987C11.4066 10.6413 13.2724 9.48703 15.3487 9.48703H17.6598V11.302C17.6598 11.5307 17.7892 11.74 17.9937 11.8428C18.1982 11.9457 18.445 11.9239 18.6278 11.786L23.4677 8.15605C23.6201 8.04231 23.7097 7.86203 23.7097 7.67206C23.7097 7.4821 23.6201 7.30181 23.4677 7.18807Z" fill="currentColor"/><path fill-rule="evenodd" clip-rule="evenodd" d="M12 3.2002H5C3.89543 3.2002 3 4.09563 3 5.2002V18.7002C3 19.8048 3.89543 20.7002 5 20.7002H18.5C19.6046 20.7002 20.5 19.8048 20.5 18.7002V14.0002H18.7V18.7002C18.7 18.8107 18.6105 18.9002 18.5 18.9002H5C4.88954 18.9002 4.8 18.8107 4.8 18.7002V5.2002C4.8 5.08974 4.88954 5.0002 5 5.0002H12V3.2002Z" fill="currentColor"/></symbol><symbol id="new" fill='none' viewBox="0 0 24 24"><path fill="currentColor" fill-rule="evenodd" d="M12 22c5.523 0 10-4.477 10-10S17.523 2 12 2 2 6.477 2 12s4.477 10 10 10zm1.684-5.876h2.052V7.7h-2.052v5.22L10.252 7.7H8.2v8.424h2.052v-5.196l3.432 5.196z" clip-rule="evenodd"/></symbol><symbol id="reservation" fill='none' viewBox="0 0 24 24"><rect width="15.8" height="15.8" x="4.1" y="4.55" stroke="currentColor" stroke-width="1.8" rx="1.1"/><path stroke="currentColor" stroke-miterlimit="10" stroke-width="1.8" d="M8.784 12.592l2.383 2.435 4.05-4.141"/><path fill="currentColor" stroke="currentColor" stroke-width="1.65" d="M4.025 5.85c0-.76.616-1.375 1.375-1.375h13.2c.76 0 1.375.616 1.375 1.375v1.375H4.025V5.85z"/><path stroke="currentColor" stroke-linecap="round" stroke-width="1.8" d="M7.6 2v3.3M16.4 2v3.3"/></symbol><symbol id="copy-code" fill='none' viewBox="0 0 24 24"><rect width="12.2" height="12.2" x="7.9" y="7.9" stroke="currentColor" stroke-width="1.8" rx="1.1"/><path fill="currentColor" fill-rule="evenodd" d="M5 4.8h10c.11 0 .2.09.2.2v1H17V5a2 2 0 0 0-2-2H5a2 2 0 0 0-2 2v10a2 2 0 0 0 2 2h1v-1.8H5a.2.2 0 0 1-.2-.2V5c0-.11.09-.2.2-.2z" clip-rule="evenodd"/></symbol><symbol id="edit" fill='none' viewBox="0 0 24 24"><path fill="currentColor" d="M6.17 21.244H3.687a.933.933 0 0 1-.931-.93v-2.485c0-.252.102-.485.27-.661L13.97 6.222l3.807 3.807L6.832 20.965a.921.921 0 0 1-.661.27v.01zM17.308 3.018l-1.841 1.841 3.674 3.674 1.841-1.842a.895.895 0 0 0 0-1.266l-2.407-2.407a.894.894 0 0 0-1.267 0z"/></symbol><symbol id="delete" fill='none' viewBox="0 0 24 24"><path fill="currentColor" d="M18.902 8.485H5.26a.84.84 0 0 0-.893.772l.84 11.535a.856.856 0 0 0 .89.728h11.968a.854.854 0 0 0 .889-.728l.836-11.535a.84.84 0 0 0-.89-.773l.002.001zm-8.184 8.718a.907.907 0 0 1-1.815 0v-4.749a.907.907 0 1 1 1.815 0v4.75zm4.536 0a.907.907 0 0 1-1.815 0v-4.749a.907.907 0 0 1 1.815 0v4.75zm3.694-13.212h-3.666v-.009a1.172 1.172 0 0 0-.033-.138l-.222-.77a.77.77 0 0 0-.713-.598H10.43a.777.777 0 0 0-.709.599l-.227.769v.006a1.475 1.475 0 0 0-.03.141H5.019a1.68 1.68 0 0 0-1.785 1.547v.51a.841.841 0 0 0 .894.775H19.84a.84.84 0 0 0 .893-.775v-.51a1.68 1.68 0 0 0-1.784-1.546"/></symbol><symbol id="refresh" fill='none' viewBox="0 0 24 24"><path stroke="currentColor" stroke-linejoin="round" stroke-width="1.8" d="M15.691 10.293h5.693V4.6"/><path fill="currentColor" fill-rule="evenodd" d="M19.168 14.82A7.703 7.703 0 0 1 4.3 12a7.7 7.7 0 0 1 15.261-1.461l1.74-.484C20.403 5.741 16.58 2.5 12 2.5a9.5 9.5 0 1 0 0 19 9.503 9.503 0 0 0 8.87-6.089l-1.702-.592z" clip-rule="evenodd"/></symbol><symbol id="alert" fill='none' viewBox="0 0 24 24"><path fill="currentColor" fill-rule="evenodd" d="M22 12c0 5.523-4.477 10-10 10-5.522 0-10-4.477-10-10S6.478 2 12 2c5.523 0 10 4.477 10 10zm-8.99 5H11v-2h2.01v2zM13 7v6h-2V7h2z" clip-rule="evenodd"/></symbol><symbol id="upload" fill='none' viewBox="0 0 24 24"><path stroke="currentColor" stroke-miterlimit="10" stroke-width="1.8" d="M20.5 12.2l-.086 5.716a1.999 1.999 0 0 1-2 1.968H5a2 2 0 0 1-2-2V12.2"/><path stroke="currentColor" stroke-width="1.8" d="M11.955 16.01V3"/><path stroke="currentColor" stroke-linejoin="round" stroke-width="1.8" d="M16.428 7.635l-4.472-4.473-4.473 4.473"/></symbol><symbol id="info" fill='none' viewBox="0 0 24 24"><path fill="currentColor" fill-rule="evenodd" d="M22 12c0 5.523-4.477 10-10 10S2 17.523 2 12 6.477 2 12 2s10 4.477 10 10zM11.09 7.455h1.828v1.818h-1.827V7.455zm-.908 2.727h2.727v4.545h1.364v1.819H9.727v-1.819h1.364V12h-.91v-1.818z" clip-rule="evenodd"/></symbol><symbol id="donation" fill='none' viewBox="0 0 24 24"><path fill="currentColor" d="M20.4 7.799v2.1a5.462 5.462 0 0 1-5.462 5.462h-2.101v4.201h-1.68v-5.881l.015-.84a5.463 5.463 0 0 1 5.446-5.042H20.4zM6.954 4.437a5.885 5.885 0 0 1 5.582 4.022 6.283 6.283 0 0 0-2.208 4.381h-.853a5.882 5.882 0 0 1-5.882-5.882v-2.52h3.36z"/></symbol><symbol id="user" fill='none' viewBox="0 0 24 24"><circle cx="12" cy="7.94" r="5.14" fill="currentColor"/><path fill="currentColor" d="M3.429 19.942a8.571 8.571 0 0 1 17.143 0v.245a1.47 1.47 0 0 1-1.47 1.47H4.898a1.47 1.47 0 0 1-1.47-1.47v-.245z"/></symbol><symbol id="photo" fill='none' viewBox="0 0 24 24"><path fill="currentColor" d="M19.948 5.58h-4.771l-.63-1.47a.59.59 0 0 0-.555-.36h-3.81c-.24 0-.45.15-.556.36l-.63 1.47H4.24c-.69 0-1.245.555-1.245 1.245v11.402c0 .69.555 1.245 1.245 1.245h15.708c.69 0 1.245-.555 1.245-1.245V6.825c0-.69-.555-1.245-1.245-1.245zm-7.862 11.507c-2.43 0-4.41-2.04-4.41-4.56 0-2.521 1.965-4.561 4.41-4.561 2.446 0 4.411 2.04 4.411 4.56 0 2.52-1.965 4.56-4.41 4.56z"/></symbol><symbol id="done" fill='none' viewBox="0 0 24 24"><path stroke="currentColor" stroke-width="1.9" d="M3.5 11.5L9 17 19.5 6.5"/></symbol><symbol id="close" fill='none' viewBox="0 0 24 24"><path stroke="currentColor" stroke-width="1.9" d="M4.5 4.5l15 15m0-15l-15 15"/></symbol><symbol id="chevron-up" fill='none' viewBox="0 0 24 24"><path stroke="currentColor" stroke-width="1.8" d="M19.64 15.27l-7.5-7.5-7.5 7.5"/></symbol><symbol id="chevron-down" fill='none' viewBox="0 0 24 24"><path stroke="currentColor" stroke-width="1.8" d="M4.64 8.64l7.5 7.5 7.5-7.5"/></symbol><symbol id="chevron-left" fill='none' viewBox="0 0 24 24"><path stroke="currentColor" stroke-width="1.9" d="M14.5 4.5L7 12l7.5 7.5"/></symbol><symbol id="chevron-right" fill='none' viewBox="0 0 24 24"><path stroke="currentColor" stroke-width="1.9" d="M9 4.5l7.5 7.5L9 19.5"/></symbol><symbol id="arrow-up" fill='none' viewBox="0 0 24 24"><path fill="currentColor" fill-rule="evenodd" d="M5.709 15.965l5.738-8.683c.296-.431.989-.431 1.261 0l5.763 8.683c.297.453-.05 1.042-.643 1.042H6.352c-.57 0-.94-.589-.643-1.042z" clip-rule="evenodd"/></symbol><symbol id="arrow-down" fill='none' viewBox="0 0 24 24"><path fill="currentColor" fill-rule="evenodd" d="M18.399 8.045l-5.74 8.68c-.3.432-.99.432-1.26 0l-5.77-8.68c-.3-.45.05-1.045.64-1.045h11.48c.57 0 .94.587.65 1.045z" clip-rule="evenodd"/></symbol><symbol id="pin" fill='none' viewBox="0 0 24 24"><path d="M9.3872 2.57378C9.47793 2.48305 9.58565 2.41108 9.7042 2.36198C9.82274 2.31287 9.9498 2.2876 10.0781 2.2876C10.2064 2.2876 10.3335 2.31287 10.452 2.36198C10.5706 2.41108 10.6783 2.48305 10.769 2.57378C10.9523 2.75703 11.0552 3.00556 11.0552 3.2647C11.0552 3.52384 10.9523 3.77237 10.769 3.95561L10.5744 4.15024L18.3594 10.1836L19.1476 9.38563C19.3308 9.20238 19.5794 9.09944 19.8385 9.09944C20.0976 9.09944 20.3462 9.20238 20.5294 9.38563C20.7127 9.56887 20.8156 9.8174 20.8156 10.0765C20.8156 10.3357 20.7127 10.5842 20.5294 10.7675L16.3255 14.9421L21.4247 20.0413C21.5159 20.1318 21.5883 20.2394 21.6377 20.358C21.6871 20.4766 21.7125 20.6037 21.7125 20.7322C21.7125 20.8607 21.6871 20.9879 21.6377 21.1064C21.5883 21.225 21.5159 21.3327 21.4247 21.4231C21.3342 21.5143 21.2266 21.5867 21.108 21.6361C20.9894 21.6855 20.8622 21.711 20.7338 21.711C20.6053 21.711 20.4781 21.6855 20.3595 21.6361C20.2409 21.5867 20.1333 21.5143 20.0428 21.4231L14.9437 16.3045L10.769 20.4695C10.6786 20.5607 10.5709 20.6331 10.4524 20.6825C10.3338 20.7319 10.2066 20.7573 10.0781 20.7573C9.94965 20.7573 9.82246 20.7319 9.70388 20.6825C9.58529 20.6331 9.47767 20.5607 9.3872 20.4695C9.29599 20.379 9.2236 20.2714 9.17419 20.1528C9.12479 20.0342 9.09935 19.907 9.09935 19.7785C9.09935 19.6501 9.12479 19.5229 9.17419 19.4043C9.2236 19.2857 9.29599 19.1781 9.3872 19.0876L10.1657 18.3091L4.15182 10.5242L3.9572 10.7188C3.86673 10.81 3.75911 10.8824 3.64052 10.9318C3.52194 10.9812 3.39475 11.0066 3.26628 11.0066C3.13782 11.0066 3.01063 10.9812 2.89205 10.9318C2.77346 10.8824 2.66583 10.81 2.57537 10.7188C2.48416 10.6283 2.41177 10.5207 2.36236 10.4021C2.31296 10.2835 2.28752 10.1563 2.28752 10.0279C2.28752 9.89942 2.31296 9.77223 2.36236 9.65365C2.41177 9.53506 2.48416 9.42743 2.57537 9.33697L9.3872 2.57378Z" fill="currentColor"/></symbol><symbol id="calendar" fill='none' viewBox="0 0 24 24"><rect x="4.1002" y="4.5499" width="15.8" height="15.8" rx="1.1" stroke="currentColor" stroke-width="1.8"/><path d="M4.0252 5.8499C4.0252 5.09051 4.6408 4.4749 5.4002 4.4749H18.6002C19.3596 4.4749 19.9752 5.09051 19.9752 5.8499V7.2249H4.0252V5.8499Z" fill="currentColor" stroke="currentColor" stroke-width="1.65"/><path d="M7.6001 2V5.3" stroke="currentColor" stroke-width="1.8" stroke-linecap="round"/><path d="M16.3999 2V5.3" stroke="currentColor" stroke-width="1.8" stroke-linecap="round"/></symbol></svg>